# xmcd CD database file
#
# Track frame offsets:
#	150
#	12678
#	33302
#	47293
#	61542
#	74551
#	87173
#	100896
#	120216
#	134790
#	149477
#	163683
#	178861
#	196021
#	210017
#	220054
#
# Disc length: 3107 seconds
#
# Revision: 0
# Processed by: cddbd v1.5.1PL0 Copyright (c) Steve Scherf et al.
# Submitted via: CDex 1.51
#
DISCID=db0c2110
DTITLE=Various Artist - Delightful Diva's - CD2
DYEAR=2004
DGENRE=Jazz
TTITLE0=Dinah Washington - Mad About The Boy
TTITLE1=Nina Simone - Ain't Got No - I Got Life
TTITLE2=Billie Holiday - Carelessly
TTITLE3=Ella Fitzgerald - How High The Moon
TTITLE4=Sarah Vaughan - Body And Soul
TTITLE5=Peggy Lee - Oh, What A Beautiful Morning
TTITLE6=Lena Horne - More Than You Know
TTITLE7=Carmen McRae - Underneath The Apple Tree
TTITLE8=Astrid Gilberto - The Girl From Ipanema
TTITLE9=Billie Holiday - Pennies From Heaven
TTITLE10=Ella Fitzgerald - Holiday In Harlem
TTITLE11=Dinah Washington - Smoke Gets In Your Eyes
TTITLE12=Nina Simone - Don't Let Me Be Misunderstood
TTITLE13=Sarah Vaughan - The More I See You
TTITLE14=Peggy Lee - Just One Of Those Things
TTITLE15=Lena Horne - Love Me Or Leave Me
EXTD=YEAR: 2004
EXTT0=
EXTT1=
EXTT2=
EXTT3=
EXTT4=
EXTT5=
EXTT6=
EXTT7=
EXTT8=
EXTT9=
EXTT10=
EXTT11=
EXTT12=
EXTT13=
EXTT14=
EXTT15=
PLAYORDER=
